<svg xmlns="http://www.w3.org/2000/svg" width="12" height="12" viewBox="0 0 12 12">
  <g id="Group_142" data-name="Group 142" transform="translate(-1458 -76)">
    <rect id="Rectangle_9" data-name="Rectangle 9" width="12" height="12" transform="translate(1458 76)" fill="#fff"/>
    <g id="next" transform="translate(1462.574 77.034)">
      <g id="Group_131" data-name="Group 131" transform="translate(0)">
        <path id="Path_19" data-name="Path 19" d="M106.772,4.27,102.65.148a.508.508,0,0,0-.717,0l-.3.3a.507.507,0,0,0,0,.717l3.461,3.461-3.465,3.465a.508.508,0,0,0,0,.717l.3.3a.508.508,0,0,0,.717,0l4.126-4.125a.511.511,0,0,0,0-.719Z" transform="translate(-101.478)" fill="#80b98e"/>
      </g>
    </g>
  </g>
</svg>
