<svg xmlns="http://www.w3.org/2000/svg" width="59" height="59" viewBox="0 0 59 59">
  <g id="Group_140" data-name="Group 140" transform="translate(-1291 -162)">
    <circle id="Ellipse_11" data-name="Ellipse 11" cx="29.5" cy="29.5" r="29.5" transform="translate(1291 162)" fill="#f3f2ef"/>
    <g id="location" transform="translate(1232.032 180.001)">
      <path id="Path_23" data-name="Path 23" d="M95.219,4.081A8.089,8.089,0,0,0,88.346,0c-.122,0-.245,0-.367,0a8.089,8.089,0,0,0-6.873,4.08,8.3,8.3,0,0,0-.108,8.2L86.909,23.1l.008.014a1.437,1.437,0,0,0,2.492,0l.008-.014,5.911-10.819a8.3,8.3,0,0,0-.108-8.2ZM88.163,10.8a3.352,3.352,0,1,1,3.352-3.352A3.356,3.356,0,0,1,88.163,10.8Z" transform="translate(0 0)" fill="#dd7b4e"/>
    </g>
  </g>
</svg>
