<svg xmlns="http://www.w3.org/2000/svg" width="59" height="59" viewBox="0 0 59 59">
  <g id="Group_139" data-name="Group 139" transform="translate(-1290 -80)">
    <circle id="Ellipse_12" data-name="Ellipse 12" cx="29.5" cy="29.5" r="29.5" transform="translate(1290 80)" fill="#f3f2ef"/>
    <g id="mail" transform="translate(1310 38)">
      <g id="Group_137" data-name="Group 137" transform="translate(0 64)">
        <g id="Group_136" data-name="Group 136">
          <path id="Path_21" data-name="Path 21" d="M7.061,65.217c2.745,2.325,7.561,6.414,8.977,7.69a.836.836,0,0,0,1.21,0c1.417-1.276,6.233-5.367,8.978-7.691a.416.416,0,0,0,.059-.575A1.655,1.655,0,0,0,24.977,64H8.31A1.655,1.655,0,0,0,7,64.642.416.416,0,0,0,7.061,65.217Z" transform="translate(-6.644 -64)" fill="#dd7b4e"/>
          <path id="Path_22" data-name="Path 22" d="M19.758,126.45a.415.415,0,0,0-.444.06c-3.044,2.581-6.929,5.888-8.151,6.99a1.687,1.687,0,0,1-2.326,0c-1.3-1.174-5.666-4.883-8.151-6.989a.417.417,0,0,0-.686.318v10.479a1.668,1.668,0,0,0,1.667,1.667H18.333A1.668,1.668,0,0,0,20,137.307V126.828A.416.416,0,0,0,19.758,126.45Z" transform="translate(0 -123.974)" fill="#dd7b4e"/>
        </g>
      </g>
    </g>
  </g>
</svg>
