<svg xmlns="http://www.w3.org/2000/svg" width="14.112" height="13.489" viewBox="0 0 14.112 13.489">
  <g id="linkedin_1_" data-name="linkedin (1)" transform="translate(0 0.668)">
    <path id="Path_2" data-name="Path 2" d="M1.711-.668A1.578,1.578,0,0,0,0,.9,1.566,1.566,0,0,0,1.672,2.477h.02a1.577,1.577,0,1,0,.02-3.145Zm0,0" fill="#606060"/>
    <path id="Path_3" data-name="Path 3" d="M8.109,198.313h3.025v9.1H8.109Zm0,0" transform="translate(-7.931 -194.593)" fill="#606060"/>
    <path id="Path_4" data-name="Path 4" d="M226.967,188.625a3.79,3.79,0,0,0-2.726,1.534v-1.32h-3.025v9.1h3.025v-5.083a2.073,2.073,0,0,1,.1-.738,1.656,1.656,0,0,1,1.552-1.106c1.095,0,1.532.835,1.532,2.058v4.869h3.025v-5.219c0-2.8-1.493-4.1-3.483-4.1Zm0,0" transform="translate(-216.337 -185.119)" fill="#606060"/>
  </g>
</svg>
