<svg xmlns="http://www.w3.org/2000/svg" width="15.756" height="15" viewBox="0 0 15.756 15">
  <g id="youtube" transform="translate(0 -12.276)">
    <path id="Path_6" data-name="Path 6" d="M13.655,223.9l-3.475-.3a26.574,26.574,0,0,0-4.607,0l-3.475.3A2.285,2.285,0,0,0,0,226.185V229.3a2.285,2.285,0,0,0,2.1,2.289l3.475.3c.764.066,1.534.1,2.3.1s1.539-.033,2.3-.1l3.475-.3a2.285,2.285,0,0,0,2.1-2.29v-3.118A2.285,2.285,0,0,0,13.655,223.9Z" transform="translate(0 -204.717)" fill="#606060"/>
    <g id="Group_125" data-name="Group 125" transform="translate(1.313 20.811)">
      <path id="Path_7" data-name="Path 7" d="M85.662,294.207a.328.328,0,0,1-.328-.328V289.94a.328.328,0,1,1,.657,0v3.939A.328.328,0,0,1,85.662,294.207Z" transform="translate(-84.021 -289.612)" fill="#fff"/>
      <path id="Path_8" data-name="Path 8" d="M45.621,290.269H43a.328.328,0,0,1,0-.657h2.626a.328.328,0,0,1,0,.657Z" transform="translate(-42.667 -289.612)" fill="#fff"/>
    </g>
    <g id="Group_126" data-name="Group 126" transform="translate(0.656 12.276)">
      <path id="Path_9" data-name="Path 9" d="M23.63,15.559a.328.328,0,0,1-.263-.131L21.4,12.8a.328.328,0,1,1,.525-.394h0l1.707,2.275,1.707-2.275a.328.328,0,1,1,.525.394h0l-1.969,2.626A.328.328,0,0,1,23.63,15.559Z" transform="translate(-21.332 -12.276)" fill="#606060"/>
      <path id="Path_10" data-name="Path 10" d="M85.662,100.9a.328.328,0,0,1-.328-.328V97.941a.328.328,0,1,1,.657,0v2.626A.328.328,0,0,1,85.662,100.9Z" transform="translate(-83.365 -94.987)" fill="#606060"/>
      <path id="Path_11" data-name="Path 11" d="M151.3,59.542a1.969,1.969,0,0,1-1.969-1.969v-.656a1.969,1.969,0,1,1,3.939,0v.656A1.969,1.969,0,0,1,151.3,59.542Zm0-3.939a1.313,1.313,0,0,0-1.313,1.313v.656a1.313,1.313,0,1,0,2.626,0v-.656A1.313,1.313,0,0,0,151.3,55.6Z" transform="translate(-145.395 -53.634)" fill="#606060"/>
      <path id="Path_12" data-name="Path 12" d="M300.637,59.541a1.969,1.969,0,0,1-1.969-1.969v-2.3a.328.328,0,1,1,.656,0v2.3a1.313,1.313,0,1,0,2.626,0v-2.3a.328.328,0,1,1,.656,0v2.3A1.969,1.969,0,0,1,300.637,59.541Z" transform="translate(-290.134 -53.633)" fill="#606060"/>
      <path id="Path_13" data-name="Path 13" d="M406.976,121.572c-1.641,0-1.641-1.729-1.641-2.3a.328.328,0,0,1,.657,0c0,1.362.394,1.641.985,1.641a.328.328,0,1,1,0,.657Z" transform="translate(-393.518 -115.664)" fill="#606060"/>
    </g>
    <g id="Group_127" data-name="Group 127" transform="translate(4.595 20.811)">
      <path id="Path_14" data-name="Path 14" d="M150.647,335.561a1.313,1.313,0,0,1-1.313-1.313v-1.641a.328.328,0,0,1,.656,0v1.641a.656.656,0,1,0,1.313,0v-1.641a.328.328,0,0,1,.657,0v1.641A1.313,1.313,0,0,1,150.647,335.561Z" transform="translate(-149.334 -330.966)" fill="#fff"/>
      <path id="Path_15" data-name="Path 15" d="M256.329,294.207a.328.328,0,0,1-.328-.328V289.94a.328.328,0,1,1,.657,0v3.939A.328.328,0,0,1,256.329,294.207Z" transform="translate(-252.719 -289.612)" fill="#fff"/>
      <path id="Path_16" data-name="Path 16" d="M385.97,335.561h-.656A1.313,1.313,0,0,1,384,334.248v-.656a1.313,1.313,0,1,1,2.626,0v.328a.328.328,0,0,1-.328.328h-1.641a.656.656,0,0,0,.656.656h.656a.328.328,0,1,1,0,.656Zm-1.313-1.969h1.313a.656.656,0,0,0-1.313,0Z" transform="translate(-376.78 -330.966)" fill="#fff"/>
      <path id="Path_17" data-name="Path 17" d="M257.642,335.562a1.641,1.641,0,1,1,1.641-1.641A1.641,1.641,0,0,1,257.642,335.562Zm0-2.626a.985.985,0,1,0,.985.985A.985.985,0,0,0,257.642,332.936Z" transform="translate(-252.719 -330.967)" fill="#fff"/>
    </g>
  </g>
</svg>
