<svg xmlns="http://www.w3.org/2000/svg" width="15.2" height="15.203" viewBox="0 0 15.2 15.203">
  <g id="instagram-sketched" transform="translate(-0.449 0)">
    <path id="Path_3" data-name="Path 3" d="M15.61,4.47a5.555,5.555,0,0,0-.353-1.844A3.894,3.894,0,0,0,13.032.4,5.569,5.569,0,0,0,11.188.048C10.374.009,10.116,0,8.051,0S5.729.009,4.918.045A5.557,5.557,0,0,0,3.074.4a3.709,3.709,0,0,0-1.348.879A3.743,3.743,0,0,0,.849,2.622,5.57,5.57,0,0,0,.5,4.467C.457,5.281.449,5.539.449,7.6s.009,2.322.045,3.133a5.555,5.555,0,0,0,.353,1.844A3.894,3.894,0,0,0,3.071,14.8a5.57,5.57,0,0,0,1.844.353c.811.036,1.069.045,3.133.045s2.322-.009,3.133-.045a5.554,5.554,0,0,0,1.844-.353,3.889,3.889,0,0,0,2.225-2.224,5.574,5.574,0,0,0,.353-1.844c.036-.811.045-1.069.045-3.133s0-2.322-.039-3.133Zm-1.369,6.207a4.167,4.167,0,0,1-.261,1.411,2.522,2.522,0,0,1-1.443,1.443,4.182,4.182,0,0,1-1.411.261c-.8.036-1.042.045-3.071.045s-2.272-.009-3.071-.045a4.165,4.165,0,0,1-1.411-.261,2.339,2.339,0,0,1-.873-.567,2.364,2.364,0,0,1-.567-.873,4.182,4.182,0,0,1-.261-1.411c-.036-.8-.045-1.042-.045-3.071s.009-2.272.045-3.071a4.165,4.165,0,0,1,.261-1.411,2.311,2.311,0,0,1,.57-.873,2.36,2.36,0,0,1,.873-.567,4.185,4.185,0,0,1,1.411-.261c.8-.036,1.042-.045,3.071-.045s2.272.009,3.071.045a4.167,4.167,0,0,1,1.411.261,2.338,2.338,0,0,1,.873.567,2.363,2.363,0,0,1,.567.873,4.184,4.184,0,0,1,.261,1.411c.036.8.045,1.042.045,3.071s-.009,2.266-.045,3.068Zm0,0" transform="translate(0 0)" fill="#606060"/>
    <path id="Path_4" data-name="Path 4" d="M128.854,124.5a3.905,3.905,0,1,0,3.905,3.905A3.906,3.906,0,0,0,128.854,124.5Zm0,6.439a2.533,2.533,0,1,1,2.533-2.533A2.534,2.534,0,0,1,128.854,130.939Zm0,0" transform="translate(-120.803 -120.802)" fill="#606060"/>
    <path id="Path_5" data-name="Path 5" d="M364.273,89.514a.912.912,0,1,1-.912-.912A.912.912,0,0,1,364.273,89.514Zm0,0" transform="translate(-351.25 -85.97)" fill="#606060"/>
  </g>
</svg>
