<svg xmlns="http://www.w3.org/2000/svg" width="22.338" height="22.369" viewBox="0 0 22.338 22.369">
  <g id="Group_138" data-name="Group 138" transform="matrix(0.978, 0.208, -0.208, 0.978, 3.923, 0)">
    <path id="Path_18" data-name="Path 18" d="M18.873,13.846,16.24,11.213a1.751,1.751,0,0,0-2.915.658A1.792,1.792,0,0,1,11.256,13a8.119,8.119,0,0,1-4.89-4.89A1.7,1.7,0,0,1,7.495,6.042a1.751,1.751,0,0,0,.658-2.915L5.52.494a1.878,1.878,0,0,0-2.539,0L1.194,2.28C-.592,4.161,1.383,9.145,5.8,13.564s9.4,6.488,11.284,4.608l1.787-1.787A1.878,1.878,0,0,0,18.873,13.846Z" transform="translate(-0.539 0)" fill="#fff"/>
  </g>
</svg>
