<svg xmlns="http://www.w3.org/2000/svg" width="49" height="49" viewBox="0 0 49 49">
  <g id="Group_124" data-name="Group 124" transform="translate(-799 -342)">
    <circle id="Ellipse_1" data-name="Ellipse 1" cx="24.5" cy="24.5" r="24.5" transform="translate(799 342)" fill="#dd7b4e"/>
    <g id="instagram-sketched" transform="translate(814.551 358.6)">
      <path id="Path_3" data-name="Path 3" d="M17.136,4.92a6.114,6.114,0,0,0-.389-2.03A4.286,4.286,0,0,0,14.3.441a6.13,6.13,0,0,0-2.03-.389C11.373.01,11.089,0,8.817,0S6.261.01,5.368.049a6.116,6.116,0,0,0-2.03.389,4.083,4.083,0,0,0-1.484.968A4.12,4.12,0,0,0,.89,2.886,6.131,6.131,0,0,0,.5,4.916C.458,5.812.449,6.1.449,8.368s.01,2.556.049,3.449a6.114,6.114,0,0,0,.389,2.03A4.286,4.286,0,0,0,3.335,16.3a6.131,6.131,0,0,0,2.03.389c.892.039,1.177.049,3.449.049s2.556-.01,3.449-.049a6.113,6.113,0,0,0,2.03-.389,4.28,4.28,0,0,0,2.448-2.448,6.135,6.135,0,0,0,.389-2.03c.039-.892.049-1.177.049-3.449s0-2.556-.043-3.449Zm-1.507,6.832a4.587,4.587,0,0,1-.288,1.553,2.776,2.776,0,0,1-1.589,1.589,4.6,4.6,0,0,1-1.553.288c-.883.039-1.147.049-3.38.049s-2.5-.01-3.38-.049a4.584,4.584,0,0,1-1.553-.288,2.575,2.575,0,0,1-.961-.624,2.6,2.6,0,0,1-.624-.961,4.6,4.6,0,0,1-.288-1.553c-.039-.883-.049-1.147-.049-3.38s.01-2.5.049-3.38A4.584,4.584,0,0,1,2.3,3.442a2.543,2.543,0,0,1,.628-.961,2.6,2.6,0,0,1,.961-.624,4.606,4.606,0,0,1,1.553-.288c.883-.039,1.147-.049,3.38-.049s2.5.01,3.38.049a4.586,4.586,0,0,1,1.553.288,2.573,2.573,0,0,1,.961.624,2.6,2.6,0,0,1,.624.961,4.605,4.605,0,0,1,.288,1.553c.039.883.049,1.147.049,3.38s-.01,2.494-.049,3.377Zm0,0" transform="translate(0 0)" fill="#fff"/>
      <path id="Path_4" data-name="Path 4" d="M129.248,124.5a4.3,4.3,0,1,0,4.3,4.3A4.3,4.3,0,0,0,129.248,124.5Zm0,7.087a2.788,2.788,0,1,1,2.788-2.788A2.789,2.789,0,0,1,129.248,131.587Zm0,0" transform="translate(-120.431 -120.43)" fill="#fff"/>
      <path id="Path_5" data-name="Path 5" d="M364.457,89.605a1,1,0,1,1-1-1A1,1,0,0,1,364.457,89.605Zm0,0" transform="translate(-350.168 -85.705)" fill="#fff"/>
    </g>
  </g>
</svg>
