<svg xmlns="http://www.w3.org/2000/svg" width="59" height="59" viewBox="0 0 59 59">
  <g id="Group_134" data-name="Group 134" transform="translate(-1195 -79)">
    <g id="Group_64" data-name="Group 64" transform="translate(-291 -2256)">
      <circle id="Ellipse_9" data-name="Ellipse 9" cx="29.5" cy="29.5" r="29.5" transform="translate(1486 2335)" fill="#f3f2ef"/>
    </g>
    <g id="next" transform="translate(1118.522 101.804)">
      <g id="Group_131" data-name="Group 131" transform="translate(101.478)">
        <path id="Path_19" data-name="Path 19" d="M110.787,7.508,103.539.26a.893.893,0,0,0-1.26,0l-.534.534a.892.892,0,0,0,0,1.26l6.086,6.086-6.093,6.093a.893.893,0,0,0,0,1.26l.534.534a.893.893,0,0,0,1.26,0l7.255-7.255a.9.9,0,0,0,0-1.264Z" transform="translate(-101.478)"/>
      </g>
    </g>
  </g>
</svg>
