<svg xmlns="http://www.w3.org/2000/svg" width="59" height="59" viewBox="0 0 59 59">
  <g id="Group_133" data-name="Group 133" transform="translate(-1118 -80)">
    <circle id="Ellipse_9" data-name="Ellipse 9" cx="29.5" cy="29.5" r="29.5" transform="translate(1118 80)" fill="#f3f2ef"/>
    <g id="back" transform="translate(1041.52 101)">
      <g id="Group_132" data-name="Group 132" transform="translate(101.48 0)">
        <path id="Path_20" data-name="Path 20" d="M104.745,8.274l6.188-6.188a.907.907,0,0,0,0-1.279l-.542-.542a.906.906,0,0,0-1.28,0l-7.367,7.367a.913.913,0,0,0,0,1.284l7.361,7.36a.906.906,0,0,0,1.28,0l.542-.542a.906.906,0,0,0,0-1.28Z" transform="translate(-101.48 0)"/>
      </g>
    </g>
  </g>
</svg>
