<svg xmlns="http://www.w3.org/2000/svg" width="40" height="40" viewBox="0 0 40 40">
  <g id="Group_130" data-name="Group 130" transform="translate(-1056 -112)">
    <rect id="Rectangle_6" data-name="Rectangle 6" width="40" height="40" rx="20" transform="translate(1056 112)" fill="#80b98e"/>
    <g id="phone" transform="matrix(0.978, 0.208, -0.208, 0.978, 1066.126, 240.91)">
      <g id="Group_129" data-name="Group 129" transform="translate(-19.461 -115.878)">
        <path id="Path_18" data-name="Path 18" d="M13.8,10.018l-1.9-1.9a1.267,1.267,0,0,0-2.109.476,1.3,1.3,0,0,1-1.5.816A5.874,5.874,0,0,1,4.755,5.868a1.233,1.233,0,0,1,.816-1.5,1.267,1.267,0,0,0,.476-2.109l-1.9-1.9a1.359,1.359,0,0,0-1.837,0L1.013,1.65C-.279,3.01,1.149,6.616,4.347,9.814s6.8,4.694,8.164,3.334L13.8,11.855A1.359,1.359,0,0,0,13.8,10.018Z" transform="translate(-0.539 0)" fill="#fff"/>
      </g>
    </g>
  </g>
</svg>
