<svg xmlns="http://www.w3.org/2000/svg" width="49" height="49" viewBox="0 0 49 49">
  <g id="Group_125" data-name="Group 125" transform="translate(-832 -1686)">
    <path id="Path_1" data-name="Path 1" d="M24.5,0A24.5,24.5,0,1,1,0,24.5,24.5,24.5,0,0,1,24.5,0Z" transform="translate(832 1686)" fill="#fff"/>
    <g id="linkedin_1_" data-name="linkedin (1)" transform="translate(850 1703.918)">
      <path id="Path_2" data-name="Path 2" d="M1.711-.668A1.578,1.578,0,0,0,0,.9,1.566,1.566,0,0,0,1.672,2.477h.02a1.577,1.577,0,1,0,.02-3.145Zm0,0" fill="#dd7b4e"/>
      <path id="Path_3" data-name="Path 3" d="M8.109,198.313h3.025v9.1H8.109Zm0,0" transform="translate(-7.931 -194.593)" fill="#dd7b4e"/>
      <path id="Path_4" data-name="Path 4" d="M226.967,188.625a3.79,3.79,0,0,0-2.726,1.534v-1.32h-3.025v9.1h3.025v-5.083a2.073,2.073,0,0,1,.1-.738,1.656,1.656,0,0,1,1.552-1.106c1.095,0,1.532.835,1.532,2.058v4.869h3.025v-5.219c0-2.8-1.493-4.1-3.483-4.1Zm0,0" transform="translate(-216.337 -185.119)" fill="#dd7b4e"/>
    </g>
  </g>
</svg>
