<svg xmlns="http://www.w3.org/2000/svg" width="49" height="49" viewBox="0 0 49 49">
  <g id="Group_128" data-name="Group 128" transform="translate(-909 -342)">
    <circle id="Ellipse_4" data-name="Ellipse 4" cx="24.5" cy="24.5" r="24.5" transform="translate(909 342)" fill="#fff"/>
    <g id="youtube" transform="translate(925 345.724)">
      <path id="Path_6" data-name="Path 6" d="M15.6,223.953l-3.97-.345a30.359,30.359,0,0,0-5.263,0l-3.97.345A2.61,2.61,0,0,0,0,226.568v3.562a2.61,2.61,0,0,0,2.4,2.615l3.97.345c.873.075,1.752.114,2.632.114s1.759-.038,2.632-.114l3.97-.345A2.61,2.61,0,0,0,18,230.13v-3.562A2.61,2.61,0,0,0,15.6,223.953Z" transform="translate(0 -203.792)" fill="#dd7b4e"/>
      <g id="Group_125" data-name="Group 125" transform="translate(1.5 22.026)">
        <path id="Path_7" data-name="Path 7" d="M85.709,294.862a.375.375,0,0,1-.375-.375v-4.5a.375.375,0,1,1,.75,0v4.5A.375.375,0,0,1,85.709,294.862Z" transform="translate(-83.834 -289.612)" fill="#fff"/>
        <path id="Path_8" data-name="Path 8" d="M46.042,290.362h-3a.375.375,0,0,1,0-.75h3a.375.375,0,0,1,0,.75Z" transform="translate(-42.667 -289.612)" fill="#fff"/>
      </g>
      <g id="Group_126" data-name="Group 126" transform="translate(0.75 12.276)">
        <path id="Path_9" data-name="Path 9" d="M23.958,16.027a.375.375,0,0,1-.3-.15l-2.25-3a.375.375,0,1,1,.6-.45h0l1.95,2.6,1.95-2.6a.375.375,0,1,1,.6.45h0l-2.25,3A.375.375,0,0,1,23.958,16.027Z" transform="translate(-21.332 -12.276)" fill="#dd7b4e"/>
        <path id="Path_10" data-name="Path 10" d="M85.709,101.363a.375.375,0,0,1-.375-.375v-3a.375.375,0,1,1,.75,0v3A.375.375,0,0,1,85.709,101.363Z" transform="translate(-83.084 -94.613)" fill="#dd7b4e"/>
        <path id="Path_11" data-name="Path 11" d="M151.584,60.2a2.25,2.25,0,0,1-2.25-2.25V57.2a2.25,2.25,0,1,1,4.5,0v.75A2.25,2.25,0,0,1,151.584,60.2Zm0-4.5a1.5,1.5,0,0,0-1.5,1.5v.75a1.5,1.5,0,1,0,3,0V57.2a1.5,1.5,0,0,0-1.5-1.5Z" transform="translate(-144.834 -53.447)" fill="#dd7b4e"/>
        <path id="Path_12" data-name="Path 12" d="M300.918,60.2a2.25,2.25,0,0,1-2.25-2.25V55.321a.375.375,0,0,1,.75,0v2.625a1.5,1.5,0,1,0,3,0V55.321a.375.375,0,1,1,.75,0v2.625A2.25,2.25,0,0,1,300.918,60.2Z" transform="translate(-288.918 -53.446)" fill="#dd7b4e"/>
        <path id="Path_13" data-name="Path 13" d="M407.21,121.946c-1.875,0-1.875-1.975-1.875-2.625a.375.375,0,0,1,.75,0c0,1.556.45,1.875,1.125,1.875a.375.375,0,1,1,0,.75Z" transform="translate(-391.835 -115.196)" fill="#dd7b4e"/>
      </g>
      <g id="Group_127" data-name="Group 127" transform="translate(5.25 22.026)">
        <path id="Path_14" data-name="Path 14" d="M150.834,336.029a1.5,1.5,0,0,1-1.5-1.5v-1.875a.375.375,0,0,1,.75,0v1.875a.75.75,0,1,0,1.5,0v-1.875a.375.375,0,0,1,.75,0v1.875A1.5,1.5,0,0,1,150.834,336.029Z" transform="translate(-149.334 -330.779)" fill="#fff"/>
        <path id="Path_15" data-name="Path 15" d="M256.376,294.862a.375.375,0,0,1-.375-.375v-4.5a.375.375,0,1,1,.75,0v4.5A.375.375,0,0,1,256.376,294.862Z" transform="translate(-252.251 -289.612)" fill="#fff"/>
        <path id="Path_16" data-name="Path 16" d="M386.251,336.029h-.75a1.5,1.5,0,0,1-1.5-1.5v-.75a1.5,1.5,0,0,1,3,0v.375a.375.375,0,0,1-.375.375h-1.875a.75.75,0,0,0,.75.75h.75a.375.375,0,1,1,0,.75Zm-1.5-2.25h1.5a.75.75,0,0,0-1.5,0Z" transform="translate(-375.751 -330.779)" fill="#fff"/>
        <path id="Path_17" data-name="Path 17" d="M257.876,336.03a1.875,1.875,0,1,1,1.875-1.875A1.875,1.875,0,0,1,257.876,336.03Zm0-3A1.125,1.125,0,1,0,259,334.155,1.125,1.125,0,0,0,257.876,333.03Z" transform="translate(-252.251 -330.78)" fill="#fff"/>
      </g>
    </g>
  </g>
</svg>
